<svg xmlns="http://www.w3.org/2000/svg" viewBox="0 0 24 24" id="cplusplus">
  <path fill="#00599C" d="M0 0v24h24V0H0zm11.666 16.44c-.83-.41-1.34-.69-1.34-1.21 0-.48.36-.88.99-.88.62 0 .91.37 1.25.68l.19.17c.16.14.31.26.61.26.33 0 .47-.17.47-.47v-.53h-.03c-.09.16-.22.28-.38.38-.3.19-.7.34-1.22.34-.88 0-1.54-.49-1.54-1.36 0-.97.72-1.52 1.6-1.79l.54-.12c1.27-.27 1.9-.82 1.9-1.69 0-.93-.82-1.57-2.04-1.57-1.36 0-2.16.62-2.5 1.24l.92.35c.15-.29.34-.5.64-.68.4-.24.9-.36 1.44-.36.8 0 1.37.27 1.8.63.47.41.67.98.67 1.8 0 .82-.34 1.42-.76 1.83-.53.52-1.28.78-2.34 1.09l-.69.16z"></path>
  <path fill="#00599C" d="M16.48 7.67c-.3 0-.54.23-.54.53v6.1c0 .3.24.53.54.53.3 0 .53-.23.53-.53v-6.1c0-.3-.24-.53-.53-.53zm-4.2-.54c-.3 0-.54.23-.54.53v6.1c0 .3.24.53.54.53.3 0 .53-.23.53-.53v-6.1c0-.3-.23-.53-.53-.53zm-4.23.54c-.3 0-.53.23-.53.53v6.1c0 .3.24.53.53.53.3 0 .53-.23.53-.53v-6.1c0-.3-.24-.53-.53-.53zm-1.07 1.9h-.55v-.23l1.1-.02 1.38 2.93-1.3 2.77h-.04l-.85-1.9V9.1zm1.74.18l-.65 1.38h1.3l-.65-1.38z"></path>
</svg>
